<svg xmlns="http://www.w3.org/2000/svg" viewBox="0 0 48 48"><rect width="48" height="48" rx="10" fill="#1b1c3a"/><path fill="#e7c983" d="M17 40c-3 0-4-3-3-7 1-5 3-9 3-14l-2-7 5 4h6l5-4-2 7c0 5 2 9 3 14 1 4 0 7-3 7z"/><path d="M31 39c6 0 10-3 10-9" stroke="#e7c983" stroke-width="2" fill="none" stroke-linecap="round"/><g fill="#ece8f7"><circle cx="44" cy="26" r="1"/><circle cx="43" cy="16" r="1"/><circle cx="35" cy="7" r="1"/><circle cx="9" cy="8" r="1"/><circle cx="5" cy="14" r="1"/><circle cx="6" cy="28" r="1"/></g></svg>
